<?xml version="1.0" encoding="iso-8859-1"?>
<!-- Generator: Adobe Illustrator 19.0.0, SVG Export Plug-In . SVG Version: 6.00 Build 0)  -->
<svg version="1.1" id="Capa_1" xmlns="http://www.w3.org/2000/svg" xmlns:xlink="http://www.w3.org/1999/xlink" x="0px" y="0px"
	 viewBox="0 0 480.001 480.001" style="enable-background:new 0 0 480.001 480.001;" xml:space="preserve">
<path style="fill:#FCF1CE;" d="M359.631,256.649l22.634-13.581c2.317-1.39,2.317-4.747,0-6.137l-22.633-13.58
	c-11.198-6.719-14.163-21.629-6.389-32.122l15.713-21.205c1.608-2.17,0.324-5.272-2.349-5.67l-26.107-3.885
	c-12.917-1.922-21.362-14.562-18.195-27.231l6.402-25.604c0.655-2.621-1.718-4.994-4.339-4.339l-25.608,6.402
	c-12.669,3.167-25.307-5.278-27.229-18.194l-3.885-26.107c-0.398-2.672-3.499-3.957-5.67-2.349l-21.208,15.714
	c-10.493,7.774-25.402,4.809-32.12-6.39L195.069,49.74c-1.39-2.317-4.747-2.317-6.137,0l-13.579,22.632
	c-6.718,11.198-21.627,14.163-32.12,6.39l-21.208-15.714c-2.17-1.608-5.272-0.323-5.67,2.349l-3.885,26.107
	c-1.922,12.916-14.561,21.361-27.229,18.194l-25.608-6.402c-2.621-0.655-4.994,1.718-4.339,4.339l6.402,25.606
	c3.167,12.669-5.278,25.308-18.194,27.23l-26.109,3.885c-2.672,0.398-3.957,3.499-2.349,5.67l15.713,21.205
	c7.775,10.493,4.81,25.402-6.389,32.122l-22.631,13.58c-2.317,1.39-2.316,4.747,0,6.137l22.634,13.581
	c11.198,6.718,14.162,21.627,6.388,32.119l-15.714,21.206c-1.608,2.17-0.324,5.272,2.349,5.67l26.108,3.885
	c12.917,1.922,21.362,14.561,18.194,27.23l-6.402,25.606c-0.655,2.621,1.718,4.994,4.34,4.339l25.606-6.402
	c12.67-3.167,25.309,5.278,27.231,18.194l3.885,26.106c0.398,2.672,3.499,3.957,5.67,2.349l21.206-15.714
	c10.492-7.774,25.401-4.809,32.12,6.389l13.581,22.634c1.39,2.317,4.747,2.317,6.137,0l13.58-22.634
	c6.719-11.198,21.628-14.163,32.121-6.389l21.206,15.713c2.17,1.608,5.272,0.323,5.67-2.349l3.885-26.106
	c1.922-12.917,14.562-21.362,27.231-18.194l25.606,6.402c2.621,0.655,4.995-1.718,4.34-4.339l-6.402-25.606
	c-3.167-12.669,5.278-25.308,18.194-27.23l26.108-3.885c2.672-0.398,3.957-3.499,2.349-5.67l-15.714-21.206
	C345.469,278.277,348.434,263.368,359.631,256.649z"/>
<circle style="fill:#F9DB7B;" cx="192.004" cy="240.004" r="128"/>
<path style="fill:#A7B0A6;" d="M336.001,376.001c-74.984,0-136-61.008-136-136s61.016-136,136-136s136,61.008,136,136
	S410.985,376.001,336.001,376.001z"/>
<path style="fill:#FCF1CE;" d="M336.001,112.001c70.691,0,128,57.308,128,128s-57.309,128-128,128s-128-57.308-128-128
	S265.309,112.001,336.001,112.001 M336.001,96.001c-79.402,0-144,64.598-144,144s64.598,144,144,144s144-64.598,144-144
	S415.404,96.001,336.001,96.001z"/>
<g>
	<path style="fill:#899689;" d="M284.38,186.286c11.344,0,20.574,9.229,20.574,20.572s-9.23,20.571-20.574,20.571
		s-20.57-9.228-20.57-20.571S273.036,186.286,284.38,186.286 M284.38,170.286c-20.172,0-36.57,16.4-36.57,36.572
		c0,20.171,16.398,36.571,36.57,36.571s36.574-16.4,36.574-36.571C320.954,186.685,304.552,170.286,284.38,170.286z"/>
	<path style="fill:#899689;" d="M385.525,285.714c6.301,0,11.43,5.127,11.43,11.428c0,6.302-5.129,11.429-11.43,11.429
		s-11.43-5.127-11.43-11.429C374.095,290.841,379.224,285.714,385.525,285.714 M385.525,269.714c-15.129,0-27.43,12.3-27.43,27.428
		c0,15.129,12.301,27.429,27.43,27.429s27.43-12.3,27.43-27.429C412.954,282.014,400.653,269.714,385.525,269.714z"/>
	<circle style="fill:#899689;" cx="297.14" cy="297.14" r="9.144"/>
	<circle style="fill:#899689;" cx="339.028" cy="154.284" r="4.568"/>
	<circle style="fill:#899689;" cx="348.228" cy="235.428" r="4.568"/>
	<circle style="fill:#899689;" cx="248.004" cy="270.044" r="4.568"/>
	<circle style="fill:#899689;" cx="421.348" cy="246.204" r="4.568"/>
	<circle style="fill:#899689;" cx="321.14" cy="336.892" r="4.568"/>
	<circle style="fill:#899689;" cx="390.86" cy="185.14" r="16"/>
</g>
<g>
</g>
<g>
</g>
<g>
</g>
<g>
</g>
<g>
</g>
<g>
</g>
<g>
</g>
<g>
</g>
<g>
</g>
<g>
</g>
<g>
</g>
<g>
</g>
<g>
</g>
<g>
</g>
<g>
</g>
</svg>
